<svg width="337" height="71" viewBox="0 0 337 71" fill="none" xmlns="http://www.w3.org/2000/svg">
<path d="M1 35.5C1 16.4462 16.4462 1 35.5 1H301.5C320.554 1 336 16.4462 336 35.5C336 54.5538 320.554 70 301.5 70H35.5C16.4462 70 1 54.5538 1 35.5Z" fill="white"/>
<path d="M35.5 1V1.5H301.5V1V0.5H35.5V1ZM301.5 70V69.5H35.5V70V70.5H301.5V70ZM35.5 70V69.5C16.7223 69.5 1.5 54.2777 1.5 35.5H1H0.5C0.5 54.83 16.17 70.5 35.5 70.5V70ZM336 35.5H335.5C335.5 54.2777 320.278 69.5 301.5 69.5V70V70.5C320.83 70.5 336.5 54.83 336.5 35.5H336ZM301.5 1V1.5C320.278 1.5 335.5 16.7223 335.5 35.5H336H336.5C336.5 16.17 320.83 0.5 301.5 0.5V1ZM35.5 1V0.5C16.17 0.5 0.5 16.17 0.5 35.5H1H1.5C1.5 16.7223 16.7223 1.5 35.5 1.5V1Z" fill="#D9D9D9"/>
<path d="M19.2017 45V26.8182H25.3452C26.7715 26.8182 27.9375 27.0756 28.843 27.5906C29.7545 28.0996 30.4292 28.7891 30.8672 29.6591C31.3052 30.5291 31.5241 31.4998 31.5241 32.571C31.5241 33.6423 31.3052 34.6159 30.8672 35.4918C30.4351 36.3678 29.7663 37.0662 28.8608 37.587C27.9553 38.1019 26.7952 38.3594 25.3807 38.3594H20.9773V36.4062H25.3097C26.2862 36.4062 27.0704 36.2376 27.6623 35.9002C28.2541 35.5629 28.6832 35.1071 28.9496 34.533C29.2218 33.953 29.358 33.299 29.358 32.571C29.358 31.843 29.2218 31.192 28.9496 30.6179C28.6832 30.0438 28.2512 29.594 27.6534 29.2685C27.0556 28.937 26.2625 28.7713 25.2741 28.7713H21.4034V45H19.2017ZM40.3576 45.2841C39.0437 45.2841 37.9103 44.9941 36.9574 44.4141C36.0104 43.8281 35.2795 43.0114 34.7646 41.9638C34.2556 40.9103 34.0011 39.6851 34.0011 38.2884C34.0011 36.8916 34.2556 35.6605 34.7646 34.5952C35.2795 33.5239 35.9956 32.6894 36.913 32.0916C37.8363 31.4879 38.9135 31.1861 40.1445 31.1861C40.8548 31.1861 41.5561 31.3045 42.2486 31.5412C42.9411 31.7779 43.5714 32.1626 44.1396 32.6953C44.7077 33.2221 45.1605 33.9205 45.4979 34.7905C45.8352 35.6605 46.0039 36.7318 46.0039 38.0043V38.892H35.4925V37.081H43.8732C43.8732 36.3116 43.7193 35.625 43.4116 35.0213C43.1097 34.4176 42.6777 33.9412 42.1154 33.592C41.5591 33.2428 40.9021 33.0682 40.1445 33.0682C39.31 33.0682 38.5879 33.2753 37.9783 33.6896C37.3746 34.098 36.91 34.6307 36.5845 35.2876C36.259 35.9446 36.0962 36.6489 36.0962 37.4006V38.608C36.0962 39.6378 36.2738 40.5108 36.6289 41.2269C36.9899 41.9371 37.4901 42.4787 38.1293 42.8516C38.7685 43.2185 39.5112 43.402 40.3576 43.402C40.908 43.402 41.4052 43.325 41.8491 43.1712C42.2989 43.0114 42.6866 42.7746 43.0121 42.4609C43.3376 42.1413 43.5891 41.7448 43.7667 41.2713L45.7908 41.8395C45.5778 42.526 45.2197 43.1297 44.7166 43.6506C44.2135 44.1655 43.5921 44.5679 42.8523 44.858C42.1125 45.142 41.2809 45.2841 40.3576 45.2841ZM58.8501 34.4176L56.968 34.9503C56.8497 34.6366 56.6751 34.3318 56.4442 34.0359C56.2193 33.734 55.9116 33.4854 55.521 33.2901C55.1303 33.0948 54.6302 32.9972 54.0206 32.9972C53.1861 32.9972 52.4906 33.1895 51.9343 33.5742C51.3839 33.953 51.1087 34.4354 51.1087 35.0213C51.1087 35.5421 51.2981 35.9535 51.6768 36.2553C52.0556 36.5572 52.6475 36.8087 53.4524 37.0099L55.4766 37.5071C56.6958 37.803 57.6043 38.2558 58.2021 38.8654C58.7998 39.4691 59.0987 40.2474 59.0987 41.2003C59.0987 41.9815 58.8738 42.6799 58.424 43.2955C57.9801 43.911 57.3587 44.3963 56.5597 44.7514C55.7607 45.1065 54.8314 45.2841 53.772 45.2841C52.3812 45.2841 51.23 44.9822 50.3185 44.3786C49.4071 43.7749 48.83 42.893 48.5874 41.733L50.576 41.2358C50.7654 41.9697 51.1235 42.5201 51.6502 42.8871C52.1829 43.254 52.8783 43.4375 53.7365 43.4375C54.7131 43.4375 55.4884 43.2304 56.0625 42.8161C56.6425 42.3958 56.9325 41.8928 56.9325 41.3068C56.9325 40.8333 56.7668 40.4368 56.4354 40.1172C56.1039 39.7917 55.5949 39.549 54.9084 39.3892L52.6357 38.8565C51.3868 38.5606 50.4695 38.1019 49.8835 37.4805C49.3035 36.8531 49.0135 36.0689 49.0135 35.1278C49.0135 34.3584 49.2295 33.6778 49.6616 33.0859C50.0996 32.4941 50.6944 32.0295 51.446 31.6921C52.2036 31.3548 53.0618 31.1861 54.0206 31.1861C55.37 31.1861 56.4295 31.482 57.1989 32.0739C57.9742 32.6657 58.5246 33.447 58.8501 34.4176ZM71.5566 50.1136V42.9048H71.379C71.2251 43.1534 71.0061 43.4671 70.722 43.8459C70.4379 44.2187 70.0325 44.5531 69.5058 44.8491C68.979 45.1391 68.2777 45.2841 67.4017 45.2841C66.2654 45.2841 65.2622 44.997 64.3921 44.4229C63.5221 43.8429 62.8415 43.0262 62.3502 41.9727C61.859 40.9132 61.6134 39.6615 61.6134 38.2173C61.6134 36.785 61.859 35.5421 62.3502 34.4886C62.8415 33.4351 63.5251 32.6213 64.401 32.0472C65.277 31.4731 66.289 31.1861 67.4372 31.1861C68.325 31.1861 69.0264 31.334 69.5413 31.63C70.0621 31.92 70.4587 32.2514 70.7309 32.6243C71.0091 32.9912 71.2251 33.2931 71.379 33.5298H71.6276V31.3636H73.6517V50.1136H71.5566ZM67.6858 43.402C68.5262 43.402 69.2365 43.183 69.8165 42.745C70.3965 42.3011 70.8374 41.6886 71.1393 40.9073C71.4411 40.1201 71.5921 39.2116 71.5921 38.1818C71.5921 37.1638 71.4441 36.2731 71.1482 35.5096C70.8522 34.7402 70.4143 34.1424 69.8343 33.7163C69.2542 33.2842 68.5381 33.0682 67.6858 33.0682C66.798 33.0682 66.0582 33.296 65.4664 33.7518C64.8804 34.2016 64.4395 34.8142 64.1436 35.5895C63.8535 36.3589 63.7085 37.223 63.7085 38.1818C63.7085 39.1525 63.8565 40.0343 64.1524 40.8274C64.4543 41.6146 64.8982 42.242 65.4841 42.7095C66.076 43.1712 66.8099 43.402 67.6858 43.402ZM86.0807 39.4247V31.3636H88.1759V45H86.0807V42.6918H85.9387C85.6191 43.3842 85.1219 43.9731 84.4472 44.4585C83.7725 44.9379 82.9202 45.1776 81.8904 45.1776C81.0381 45.1776 80.2805 44.9911 79.6176 44.6183C78.9548 44.2395 78.4339 43.6713 78.0551 42.9137C77.6763 42.1502 77.4869 41.1884 77.4869 40.0284V31.3636H79.5821V39.8864C79.5821 40.8807 79.8603 41.6738 80.4166 42.2656C80.9789 42.8575 81.695 43.1534 82.5651 43.1534C83.0859 43.1534 83.6156 43.0202 84.1542 42.7539C84.6987 42.4876 85.1544 42.0792 85.5214 41.5288C85.8943 40.9783 86.0807 40.277 86.0807 39.4247ZM92.0133 45V31.3636H94.1085V45H92.0133ZM93.0787 29.0909C92.6703 29.0909 92.3181 28.9518 92.0222 28.6737C91.7322 28.3955 91.5872 28.0611 91.5872 27.6705C91.5872 27.2798 91.7322 26.9454 92.0222 26.6673C92.3181 26.3891 92.6703 26.25 93.0787 26.25C93.487 26.25 93.8362 26.3891 94.1262 26.6673C94.4222 26.9454 94.5701 27.2798 94.5701 27.6705C94.5701 28.0611 94.4222 28.3955 94.1262 28.6737C93.8362 28.9518 93.487 29.0909 93.0787 29.0909ZM107.605 34.4176L105.723 34.9503C105.605 34.6366 105.43 34.3318 105.199 34.0359C104.974 33.734 104.666 33.4854 104.276 33.2901C103.885 33.0948 103.385 32.9972 102.775 32.9972C101.941 32.9972 101.246 33.1895 100.689 33.5742C100.139 33.953 99.8635 34.4354 99.8635 35.0213C99.8635 35.5421 100.053 35.9535 100.432 36.2553C100.811 36.5572 101.402 36.8087 102.207 37.0099L104.231 37.5071C105.451 37.803 106.359 38.2558 106.957 38.8654C107.555 39.4691 107.854 40.2474 107.854 41.2003C107.854 41.9815 107.629 42.6799 107.179 43.2955C106.735 43.911 106.114 44.3963 105.315 44.7514C104.516 45.1065 103.586 45.2841 102.527 45.2841C101.136 45.2841 99.9849 44.9822 99.0734 44.3786C98.162 43.7749 97.5849 42.893 97.3422 41.733L99.3309 41.2358C99.5203 41.9697 99.8783 42.5201 100.405 42.8871C100.938 43.254 101.633 43.4375 102.491 43.4375C103.468 43.4375 104.243 43.2304 104.817 42.8161C105.397 42.3958 105.687 41.8928 105.687 41.3068C105.687 40.8333 105.522 40.4368 105.19 40.1172C104.859 39.7917 104.35 39.549 103.663 39.3892L101.391 38.8565C100.142 38.5606 99.2243 38.1019 98.6384 37.4805C98.0584 36.8531 97.7684 36.0689 97.7684 35.1278C97.7684 34.3584 97.9844 33.6778 98.4165 33.0859C98.8544 32.4941 99.4492 32.0295 100.201 31.6921C100.958 31.3548 101.817 31.1861 102.775 31.1861C104.125 31.1861 105.184 31.482 105.954 32.0739C106.729 32.6657 107.28 33.447 107.605 34.4176ZM115.02 45.3196C114.156 45.3196 113.372 45.1568 112.668 44.8313C111.963 44.4999 111.404 44.0234 110.99 43.402C110.575 42.7746 110.368 42.017 110.368 41.1293C110.368 40.348 110.522 39.7147 110.83 39.2294C111.138 38.7382 111.549 38.3535 112.064 38.0753C112.579 37.7971 113.147 37.59 113.768 37.4538C114.396 37.3118 115.026 37.1993 115.659 37.1165C116.488 37.0099 117.16 36.93 117.675 36.8768C118.196 36.8176 118.574 36.7199 118.811 36.5838C119.054 36.4477 119.175 36.2109 119.175 35.8736V35.8026C119.175 34.9266 118.935 34.246 118.456 33.7607C117.982 33.2753 117.263 33.0327 116.299 33.0327C115.298 33.0327 114.514 33.2517 113.946 33.6896C113.378 34.1276 112.978 34.5952 112.748 35.0923L110.759 34.3821C111.114 33.5535 111.587 32.9084 112.179 32.4467C112.777 31.9792 113.428 31.6536 114.132 31.4702C114.843 31.2808 115.541 31.1861 116.228 31.1861C116.666 31.1861 117.169 31.2393 117.737 31.3459C118.311 31.4465 118.864 31.6566 119.397 31.9762C119.936 32.2958 120.382 32.7782 120.738 33.4233C121.093 34.0684 121.27 34.9325 121.27 36.0156V45H119.175V43.1534H119.069C118.926 43.4493 118.69 43.766 118.358 44.1033C118.027 44.4407 117.586 44.7277 117.036 44.9645C116.485 45.2012 115.813 45.3196 115.02 45.3196ZM115.34 43.4375C116.168 43.4375 116.867 43.2747 117.435 42.9492C118.009 42.6237 118.441 42.2035 118.731 41.6886C119.027 41.1737 119.175 40.6321 119.175 40.0639V38.1463C119.086 38.2528 118.891 38.3505 118.589 38.4393C118.293 38.5221 117.95 38.5961 117.559 38.6612C117.175 38.7204 116.799 38.7737 116.432 38.821C116.071 38.8625 115.778 38.898 115.553 38.9276C115.008 38.9986 114.499 39.114 114.026 39.2738C113.558 39.4277 113.18 39.6615 112.89 39.9751C112.605 40.2829 112.463 40.7031 112.463 41.2358C112.463 41.9638 112.733 42.5142 113.271 42.8871C113.816 43.254 114.505 43.4375 115.34 43.4375ZM125.094 45V31.3636H127.119V33.4233H127.261C127.509 32.7486 127.959 32.2011 128.61 31.7809C129.261 31.3607 129.995 31.1506 130.812 31.1506C130.966 31.1506 131.158 31.1535 131.389 31.1594C131.62 31.1654 131.794 31.1742 131.913 31.1861V33.3168C131.842 33.299 131.679 33.2724 131.424 33.2369C131.176 33.1954 130.912 33.1747 130.634 33.1747C129.971 33.1747 129.379 33.3138 128.859 33.592C128.344 33.8642 127.935 34.243 127.633 34.7283C127.338 35.2077 127.19 35.7552 127.19 36.3707V45H125.094Z" fill="#1E1E1E"/>
<path d="M316 31.5L308 39.5M308 31.5L316 39.5" stroke="#1E1E1E" stroke-width="1.6" stroke-linecap="round" stroke-linejoin="round"/>
</svg>
